<?xml version="1.0" encoding="utf-8"?>
<!-- Generator: Adobe Illustrator 17.0.0, SVG Export Plug-In . SVG Version: 6.00 Build 0)  -->
<!DOCTYPE svg PUBLIC "-//W3C//DTD SVG 1.1//EN" "http://www.w3.org/Graphics/SVG/1.1/DTD/svg11.dtd">
<svg version="1.1" id="Layer_1" xmlns="http://www.w3.org/2000/svg" xmlns:xlink="http://www.w3.org/1999/xlink" x="0px" y="0px"
	 width="11.907px" height="17.163px" viewBox="0 0 11.907 17.163" enable-background="new 0 0 11.907 17.163" xml:space="preserve">
<g>
	<path fill="none" d="M9.894,13.135c0.034-0.036,0.069-0.07,0.104-0.102l0,0C9.963,13.065,9.929,13.099,9.894,13.135z"/>
	<path fill="none" d="M9.894,13.135c-0.034,0.036-0.068,0.072-0.102,0.11C9.826,13.207,9.86,13.17,9.894,13.135z"/>
	<g>
		<g>
			<g>
				<path d="M5.728,0C5.886,0,6.043,0,6.2,0C6.235,0.006,6.27,0.016,6.305,0.018c0.47,0.025,0.933,0.096,1.379,0.245
					c2.225,0.745,3.602,2.262,4.118,4.553c0.05,0.222,0.071,0.451,0.106,0.676c0,0.315,0,0.629,0,0.944
					c-0.014,0.099-0.027,0.197-0.042,0.296c-0.105,0.708-0.28,1.393-0.65,2.015c-0.376,0.632-0.737,1.274-1.129,1.897
					c-1.347,2.145-2.704,4.284-4.057,6.425C6.011,17.099,6,17.132,5.986,17.164c-0.014,0-0.029,0-0.043,0
					c-0.02-0.037-0.037-0.076-0.06-0.111c-0.599-0.936-1.202-1.869-1.797-2.808c-1.136-1.793-2.27-3.586-3.337-5.421
					c-0.375-0.645-0.58-1.34-0.686-2.071C0.036,6.562,0.021,6.37,0,6.179C0,6.036,0,5.893,0,5.75
					c0.006-0.038,0.016-0.076,0.018-0.114c0.05-0.918,0.288-1.784,0.75-2.579C1.759,1.353,3.233,0.349,5.187,0.06
					C5.366,0.034,5.548,0.02,5.728,0z M5.967,8.587c1.441-0.001,2.617-1.181,2.615-2.625C8.58,4.512,7.404,3.342,5.951,3.344
					c-1.438,0.002-2.61,1.179-2.608,2.619C3.345,7.417,4.517,8.588,5.967,8.587z"/>
			</g>
		</g>
	</g>
</g>
</svg>
