<?xml version="1.0" encoding="utf-8"?>
<!-- Generator: Adobe Illustrator 17.0.0, SVG Export Plug-In . SVG Version: 6.00 Build 0)  -->
<!DOCTYPE svg PUBLIC "-//W3C//DTD SVG 1.1//EN" "http://www.w3.org/Graphics/SVG/1.1/DTD/svg11.dtd">
<svg version="1.1" id="Layer_1" xmlns="http://www.w3.org/2000/svg" xmlns:xlink="http://www.w3.org/1999/xlink" x="0px" y="0px"
	 width="31.98px" height="68.995px" viewBox="0 0 31.98 68.995" enable-background="new 0 0 31.98 68.995" xml:space="preserve">
<g>
	<g>
		<polygon fill="#FFFFFF" points="15.991,19.192 4.34,0 0,0 0,32.065 6.169,32.065 6.169,14.198 13.844,26.797 18.138,26.797 
			25.814,14.198 25.814,32.065 31.98,32.065 31.98,0 27.641,0 		"/>
		<rect x="0.002" y="36.678" fill="#FFFFFF" width="31.977" height="4.625"/>
		<rect x="14.894" y="56.288" fill="#FFFFFF" width="2.192" height="2.191"/>
		<path fill="#FFFFFF" d="M1.597,46.875l-0.024,0.015v0.649l1.205-0.669v5.51h0.636v-6.351H2.992L1.597,46.875z M11.106,45.939
			c-1.215,0-2.131,0.908-2.131,2.113c0,1.205,0.9,2.113,2.095,2.113c0.186,0,0.363-0.021,0.527-0.062l-1.477,2.277h0.727
			l1.935-2.987c0.3-0.462,0.445-0.912,0.445-1.376C13.227,46.86,12.296,45.948,11.106,45.939z M12.218,49.126
			c-0.306,0.277-0.701,0.429-1.113,0.429c-0.866,0-1.494-0.632-1.494-1.503c0-0.857,0.635-1.504,1.476-1.504
			c0.857,0,1.503,0.646,1.503,1.504C12.591,48.515,12.386,48.853,12.218,49.126z M20.824,49.423
			c0.535-0.646,0.744-1.116,0.744-1.675c0-1.048-0.772-1.809-1.836-1.809c-0.873,0-1.592,0.59-1.79,1.468l-0.01,0.044l0.577,0.203
			l0.012-0.055c0.153-0.658,0.613-1.05,1.228-1.05c0.685,0,1.182,0.512,1.182,1.218c0,0.406-0.183,0.79-0.631,1.325l-2.393,2.875
			l-0.011,0.014v0.399h3.762v-0.61h-2.774L20.824,49.423z M26.503,46.028v0.61h3.167l-2.716,5.669l-0.034,0.072h0.674l2.845-5.949
			l0.005-0.402H26.503z"/>
		<path fill="#FFFFFF" d="M6.309,67.668l-4.107-5.095l-0.015-0.019H1.755v6.351h0.636v-5.113l4.107,5.095l0.015,0.019h0.432v-6.351
			H6.309V67.668z M15.172,62.465c-1.8,0-3.158,1.404-3.158,3.265c0,1.861,1.357,3.265,3.158,3.265s3.158-1.403,3.158-3.265
			C18.33,63.869,16.972,62.465,15.172,62.465z M15.172,68.385c-1.437,0-2.521-1.142-2.521-2.655c0-1.514,1.084-2.655,2.521-2.655
			s2.521,1.142,2.521,2.655C17.694,67.244,16.609,68.385,15.172,68.385z M29.584,62.554l-1.642,5.057l-1.622-5.022l-0.011-0.035
			h-0.431l-1.633,5.057l-1.631-5.022l-0.011-0.035h-0.65l2.075,6.316l0.011,0.035h0.43l1.624-5.021l1.613,4.986l0.011,0.035h0.431
			l2.065-6.285l0.021-0.066H29.584z"/>
	</g>
</g>
</svg>
