<svg xmlns="http://www.w3.org/2000/svg" viewBox="0 0 7.28 17.41"><title>phone</title><g id="Layer_2" data-name="Layer 2"><g id="Layer_1-2" data-name="Layer 1"><path d="M7.25,1a1.13,1.13,0,0,1-.09.73l-.7,2.17c-.06.17-.08.36-.14.53a.55.55,0,0,1-.65.47c-.39,0-.78-.08-1.17-.11l-.82,0a.42.42,0,0,0-.42.31c-.12.34-.23.69-.34,1a9.8,9.8,0,0,0-.37,1.79,7.64,7.64,0,0,0,0,1.64c0,.45.09.91.17,1.36s.18.84.29,1.26a.5.5,0,0,0,.54.39l1.3,0a5.78,5.78,0,0,1,.72,0A.51.51,0,0,1,6,13c.07.32.11.65.19,1,.14.62.31,1.23.45,1.85a4,4,0,0,1,.08.54.57.57,0,0,1,0,.18l-.23.21,0,0c-.24.14-.48.3-.72.43a1.32,1.32,0,0,1-.8.21A7.87,7.87,0,0,1,4,17.25a4,4,0,0,1-1.34-.59l-.42-.3-.41-.45a5.27,5.27,0,0,1-.34-.55c-.28-.62-.56-1.25-.83-1.88a7.61,7.61,0,0,1-.47-1.59A11.09,11.09,0,0,1,0,10.13C0,9.6,0,9.08,0,8.55a15.64,15.64,0,0,1,.26-2.5,8.68,8.68,0,0,1,.5-1.78c.21-.48.43-1,.67-1.42s.39-.72.6-1.08c.11-.18.25-.34.37-.52L2.86.84l.05,0A4.49,4.49,0,0,1,5,0,1.75,1.75,0,0,1,6.36.31L7,.78Z"/></g></g></svg>