<?xml version="1.0" encoding="utf-8"?>
<!-- Generator: Adobe Illustrator 17.0.0, SVG Export Plug-In . SVG Version: 6.00 Build 0)  -->
<!DOCTYPE svg PUBLIC "-//W3C//DTD SVG 1.1//EN" "http://www.w3.org/Graphics/SVG/1.1/DTD/svg11.dtd">
<svg version="1.1" id="Layer_1" xmlns="http://www.w3.org/2000/svg" xmlns:xlink="http://www.w3.org/1999/xlink" x="0px" y="0px"
	 width="15.684px" height="15.971px" viewBox="0 0 15.684 15.971" enable-background="new 0 0 15.684 15.971" xml:space="preserve">
<g>
	<g>
		<path stroke="#221F1F" stroke-miterlimit="10" d="M5.003,11.68c-1.171,1.175-2.314,2.317-3.452,3.465
			c-0.268,0.27-0.493,0.515-0.874,0.117c-0.364-0.379-0.093-0.58,0.146-0.818c1.146-1.14,2.291-2.28,3.473-3.456
			c-1.355-1.662-1.915-3.511-1.457-5.6c0.329-1.498,1.129-2.711,2.35-3.636c2.487-1.884,6.002-1.615,8.206,0.617
			c2.191,2.219,2.389,5.757,0.488,8.218C12.27,12.676,8.736,14.223,5.003,11.68z M8.945,12.152c2.985-0.002,5.399-2.418,5.396-5.399
			c-0.003-2.972-2.444-5.409-5.407-5.401C5.953,1.361,3.54,3.781,3.544,6.761C3.547,9.74,5.966,12.155,8.945,12.152z"/>
	</g>
</g>
</svg>
